<?xml version="1.0" standalone="no"?>
<!DOCTYPE svg PUBLIC "-//W3C//DTD SVG 20010904//EN"
 "http://www.w3.org/TR/2001/REC-SVG-20010904/DTD/svg10.dtd">
<svg version="1.0" xmlns="http://www.w3.org/2000/svg"
 width="300.000000pt" height="300.000000pt" viewBox="0 0 300.000000 300.000000"
 preserveAspectRatio="xMidYMid meet">
<metadata>
Created by potrace 1.11, written by Peter Selinger 2001-2013
</metadata>
<g transform="translate(0.000000,300.000000) scale(0.100000,-0.100000)"
fill="#000000" stroke="none">
<path d="M1218 1875 c-1 -1 -51 -6 -109 -9 -59 -4 -115 -8 -125 -10 -11 -2
-46 -7 -79 -11 -33 -4 -76 -9 -95 -11 -154 -19 -466 -97 -575 -144 -79 -34
-153 -71 -170 -85 l-20 -17 20 8 c36 14 186 12 244 -3 62 -16 206 -90 264
-135 48 -38 47 -28 -3 31 -22 26 -40 50 -40 54 0 8 51 36 100 55 40 15 185 24
214 13 18 -7 17 -11 -19 -45 l-38 -37 64 32 c55 29 76 34 157 37 50 3 92 0 92
-4 0 -5 -9 -24 -20 -42 -27 -44 -25 -47 9 -23 47 34 173 90 215 97 21 3 63 7
92 8 59 3 56 6 58 -66 1 -20 4 -39 7 -42 3 -3 5 47 5 111 l-1 118 -60 -1 c-33
0 -116 -4 -184 -7 -117 -6 -147 -4 -91 7 14 2 46 9 72 15 107 25 319 33 460
18 64 -7 199 -34 207 -42 2 -2 -36 -2 -85 1 -186 10 -253 11 -263 5 -6 -4 -10
-31 -10 -61 1 -30 1 -86 0 -124 l-1 -68 -30 6 c-17 3 -30 1 -30 -4 0 -6 -5
-10 -11 -10 -6 0 -24 -9 -40 -21 l-29 -20 -9 23 c-14 36 -46 59 -89 65 -108
14 -172 -115 -94 -192 29 -30 61 -40 102 -32 26 6 29 3 35 -26 11 -48 46 -102
56 -85 5 7 9 8 9 2 0 -25 -16 -22 -49 10 l-36 35 -390 6 c-214 3 -401 8 -415
10 -14 3 -41 7 -60 10 -73 12 -138 53 -198 128 -40 49 -58 65 -60 53 -5 -26
37 -104 81 -147 73 -74 157 -104 308 -114 46 -3 107 -7 134 -10 28 -2 88 -7
135 -10 47 -4 109 -8 139 -11 29 -2 87 -6 130 -9 42 -3 103 -7 136 -10 190
-16 184 -17 178 8 l-5 22 16 -22 c30 -40 92 -39 134 4 7 7 19 13 25 13 7 0 4
-5 -5 -11 -32 -18 -19 -29 30 -24 26 2 85 7 132 10 47 3 110 8 140 10 102 8
184 14 275 20 50 3 106 7 125 10 19 2 82 7 139 11 193 12 313 79 372 208 33
73 15 86 -29 22 -57 -84 -130 -136 -210 -151 -68 -13 -393 -23 -784 -25 -85 0
-88 -1 -118 -32 -18 -18 -30 -28 -28 -23 2 6 12 28 22 49 9 21 18 46 19 55 1
14 12 17 53 16 42 0 57 5 78 24 52 49 51 124 -4 174 -45 40 -101 38 -144 -5
-18 -18 -35 -40 -38 -48 -4 -13 -7 -12 -22 3 -10 9 -28 20 -42 23 -22 6 -24
11 -24 70 l0 65 33 -17 c17 -9 39 -23 48 -31 15 -12 20 -11 44 11 34 32 82 43
163 37 10 0 44 -16 75 -35 43 -26 54 -30 47 -16 -6 10 -15 22 -20 25 -39 24
50 64 143 65 80 0 156 -17 164 -37 3 -8 -4 -23 -16 -34 -30 -29 -27 -29 27 -2
61 30 179 38 249 17 25 -8 48 -16 50 -17 1 -2 -18 -18 -43 -36 -49 -36 -81
-65 -104 -96 -9 -12 0 -8 25 11 125 95 247 144 345 139 60 -4 136 -17 169 -31
33 -13 34 -13 16 2 -111 87 -545 229 -794 259 -30 4 -61 8 -70 10 -25 5 -137
17 -231 25 -83 7 -615 12 -622 5z m74 -402 c10 -9 18 -26 18 -38 0 -15 8 -25
23 -29 33 -9 34 -8 41 18 4 16 22 32 53 47 41 20 51 21 89 11 47 -13 94 -47
94 -69 0 -14 19 -17 36 -5 6 4 19 24 29 45 12 26 24 37 40 37 27 0 80 -46 64
-55 -6 -4 -8 -13 -5 -20 6 -17 -30 -55 -54 -55 -10 0 -26 8 -35 17 -14 13 -23
15 -45 6 -24 -9 -29 -8 -40 12 -13 24 -49 45 -78 45 -15 0 -18 -9 -17 -52 l1
-53 62 -1 c34 0 62 4 62 9 0 4 5 5 10 2 12 -8 13 -65 1 -65 -5 0 -22 -20 -37
-44 -16 -25 -45 -54 -66 -66 -21 -12 -38 -25 -38 -31 0 -30 -67 23 -140 111
-21 25 -21 25 -10 1 8 -15 8 -21 1 -17 -6 4 -15 25 -21 48 -10 34 -9 43 4 57
9 8 16 11 16 5 0 -5 26 -10 60 -10 l60 0 0 51 c0 29 -3 54 -6 58 -10 9 -57
-14 -82 -40 -17 -19 -29 -23 -51 -18 -19 4 -32 1 -41 -10 -15 -18 -54 -20 -68
-2 -5 6 -13 23 -17 37 -4 14 -13 28 -19 32 -7 5 -6 8 4 8 8 0 21 9 28 20 15
24 49 26 74 3z m344 -229 c-4 -9 -9 -15 -11 -12 -3 3 -3 13 1 22 4 9 9 15 11
12 3 -3 3 -13 -1 -22z m-29 -49 c0 -8 -4 -12 -9 -9 -5 3 -6 10 -3 15 9 13 12
11 12 -6z"/>
</g>
</svg>
