<?xml version="1.0" standalone="no"?>
<!DOCTYPE svg PUBLIC "-//W3C//DTD SVG 20010904//EN"
 "http://www.w3.org/TR/2001/REC-SVG-20010904/DTD/svg10.dtd">
<svg version="1.0" xmlns="http://www.w3.org/2000/svg"
 width="300.000000pt" height="300.000000pt" viewBox="0 0 300.000000 300.000000"
 preserveAspectRatio="xMidYMid meet">
<metadata>
Created by potrace 1.11, written by Peter Selinger 2001-2013
</metadata>
<g transform="translate(0.000000,300.000000) scale(0.100000,-0.100000)"
fill="#000000" stroke="none">
<path d="M325 2972 c-119 -41 -215 -124 -267 -229 -17 -35 -28 -66 -25 -70 4
-3 68 0 144 6 524 44 1425 64 1938 42 258 -11 716 -43 828 -57 58 -8 59 -1 17
83 -41 83 -117 156 -209 201 l-75 37 -1150 2 c-1072 2 -1154 1 -1201 -15z"/>
<path d="M1230 2474 c-450 -30 -751 -79 -1017 -166 -80 -26 -123 -45 -123 -54
0 -17 -9 -17 180 1 230 21 1085 59 1102 49 4 -3 8 -88 8 -189 l0 -183 53 -7
c28 -4 71 -13 95 -20 l42 -13 0 210 0 210 98 -6 c53 -3 171 -8 262 -11 303
-10 573 -25 748 -41 96 -9 176 -13 180 -10 44 45 -492 172 -888 211 -148 15
-624 27 -740 19z"/>
<path d="M2925 1946 c-38 -19 -86 -47 -104 -63 l-35 -30 20 -26 c10 -14 53
-62 94 -108 l75 -82 -112 76 c-157 107 -279 166 -378 184 -207 37 -469 -46
-560 -177 l-27 -40 -61 55 c-58 52 -218 145 -251 145 -15 0 -16 -22 -14 -206
l3 -205 58 -24 c65 -26 113 -57 170 -110 21 -19 42 -35 47 -35 5 0 14 19 21
42 31 115 122 219 227 258 155 59 333 2 426 -135 59 -86 58 -91 -21 -115 -37
-11 -75 -23 -84 -26 -12 -3 -23 8 -39 41 -46 95 -151 132 -234 83 -52 -31 -96
-109 -101 -179 l-3 -53 -54 -16 c-55 -17 -59 -24 -32 -65 15 -24 17 -24 51
-10 51 21 57 19 86 -23 30 -46 79 -72 137 -72 95 0 164 77 176 199 l7 60 79
32 c95 38 98 36 98 -67 0 -170 -97 -305 -259 -359 -69 -22 -176 -17 -243 13
l-48 21 0 -38 c0 -56 -36 -187 -71 -258 -58 -121 -196 -238 -394 -335 -117
-58 -153 -49 -365 90 -121 78 -196 155 -239 245 -34 68 -71 201 -71 254 0 18
-1 33 -3 33 -1 0 -28 -9 -60 -20 -245 -86 -505 116 -484 377 2 35 7 67 10 70
3 3 44 -10 91 -28 l86 -34 0 -51 c0 -72 39 -147 94 -179 82 -48 171 -26 225
57 23 36 23 36 57 22 18 -8 39 -14 47 -14 12 0 54 58 45 64 -1 1 -25 9 -53 17
l-50 15 -7 57 c-11 86 -50 152 -110 183 -35 18 -101 18 -137 0 -36 -19 -89
-79 -97 -111 -4 -18 -12 -24 -23 -21 -169 48 -161 44 -150 74 18 47 48 88 95
132 177 163 466 105 570 -115 13 -27 27 -65 30 -82 3 -18 9 -33 13 -33 3 0 33
23 66 51 59 49 168 109 199 109 14 0 16 26 16 234 l0 234 -74 7 c-81 8 -289
-7 -432 -30 -197 -32 -454 -150 -717 -331 -43 -30 -80 -54 -82 -54 -2 0 34 60
80 133 47 72 85 137 86 142 1 11 -39 19 -148 30 l-73 7 0 -570 0 -570 73 -6
c39 -3 229 -7 422 -9 l350 -4 20 -29 c48 -67 99 -113 230 -212 77 -57 141
-110 143 -118 5 -19 10 -20 -653 30 -319 24 -581 43 -582 42 -1 -1 4 -24 11
-51 34 -129 123 -238 243 -297 l68 -33 1175 0 1175 0 68 33 c121 60 228 194
243 306 6 41 5 46 -12 46 -11 0 -302 -21 -647 -46 -497 -37 -631 -44 -640 -34
-9 9 -7 15 11 28 164 110 319 244 362 310 l15 24 453 8 c249 4 455 10 458 12
2 3 3 294 2 647 l-3 641 -70 -34z"/>
<path d="M1335 1293 c-56 -12 -115 -36 -144 -57 -54 -40 -158 -184 -176 -243
l-6 -23 200 0 201 0 0 165 0 165 -27 -1 c-16 -1 -37 -3 -48 -6z"/>
<path d="M1530 1136 l0 -166 201 0 200 0 -6 23 c-17 55 -118 198 -169 238 -36
28 -112 56 -175 65 l-51 7 0 -167z"/>
<path d="M1035 663 c20 -70 27 -82 83 -134 68 -64 151 -123 229 -163 81 -41
75 -31 -15 25 -119 73 -198 151 -261 258 -30 50 -55 91 -56 91 -2 0 7 -35 20
-77z"/>
<path d="M1874 653 c-55 -95 -132 -174 -238 -244 -115 -77 -117 -79 -30 -36
73 37 194 128 250 188 28 30 73 144 61 155 -2 3 -22 -26 -43 -63z"/>
<path d="M10 470 l0 -26 520 -38 c287 -21 523 -37 525 -34 3 2 -12 21 -33 41
l-38 37 -429 20 c-237 11 -456 21 -487 23 -57 3 -58 3 -58 -23z"/>
<path d="M2465 474 c-247 -12 -463 -23 -478 -23 -18 -1 -43 -15 -70 -41 l-42
-39 30 -1 c17 0 269 18 560 40 292 22 531 40 533 40 1 0 2 11 2 25 0 30 64 30
-535 -1z"/>
</g>
</svg>
