<?xml version="1.0" standalone="no"?>
<!DOCTYPE svg PUBLIC "-//W3C//DTD SVG 20010904//EN"
 "http://www.w3.org/TR/2001/REC-SVG-20010904/DTD/svg10.dtd">
<svg version="1.0" xmlns="http://www.w3.org/2000/svg"
 width="300.000000pt" height="300.000000pt" viewBox="0 0 300.000000 300.000000"
 preserveAspectRatio="xMidYMid meet">
<metadata>
Created by potrace 1.11, written by Peter Selinger 2001-2013
</metadata>
<g transform="translate(0.000000,300.000000) scale(0.100000,-0.100000)"
fill="#000000" stroke="none">
<path d="M1502 2050 c-805 -224 -1465 -410 -1468 -413 -3 -3 123 -72 279 -153
l285 -149 227 -393 c158 -273 232 -392 241 -388 8 3 109 88 225 188 116 101
217 184 224 186 7 2 90 -36 185 -83 95 -47 176 -85 180 -83 7 2 655 1003 1066
1646 19 28 30 52 26 51 -4 -1 -665 -185 -1470 -409z m133 -339 c-6 -5 -156
-95 -335 -201 -179 -106 -341 -203 -360 -215 l-36 -23 13 -163 c7 -90 12 -174
11 -187 -2 -14 -42 65 -105 210 -57 128 -100 234 -95 236 90 35 908 351 912
351 2 1 0 -3 -5 -8z m-352 -654 c147 -61 148 -61 125 -78 -13 -10 -88 -71
-168 -137 -80 -66 -146 -119 -147 -118 0 0 -6 71 -12 156 -6 85 -14 181 -17
213 l-6 58 38 -16 c22 -9 106 -44 187 -78z"/>
</g>
</svg>
